<svg  viewBox="0 0 101 120" fill="none" xmlns="http://www.w3.org/2000/svg">
<path d="M60.9726 119.694L60.2337 94.2103C60.2337 94.2103 91.2631 96.6758 97.9017 93.2346C97.9017 93.2346 104.458 51.2819 96.1423 27.5202L30.6597 19.8763L25.8756 57.9465C23.6699 51.4531 6.57925 43.5207 1.8201 52.8185C-8.4923 72.9652 28.3808 86.5312 28.3808 86.5312L24.6366 120" fill="#955B48"/>
<path d="M28.1822 60.8464C21.9372 52.2927 13.8522 49.9248 11.6212 49.415C8.90129 37.2384 5.70563 5.71482 43.7918 0.714041C89.2616 -5.25583 96.1414 28.1769 96.1414 28.1769L37.5696 27.4605V58.5053L28.1822 60.8464Z" fill="black"/>
<path opacity="0.402158" fill-rule="evenodd" clip-rule="evenodd" d="M60.2337 94.8658L39.3103 90.3885L60.1326 104.427L60.2337 94.8658Z" fill="black"/>
<path fill-rule="evenodd" clip-rule="evenodd" d="M77.4923 53.2217L84.7229 70.8631L76.0569 70.9729L77.4923 53.2217Z" fill="#743D2B"/>
<path fill-rule="evenodd" clip-rule="evenodd" d="M69.2497 58.2348C69.6801 60.6104 68.0995 62.885 65.7195 63.3136C63.3387 63.744 61.0598 62.166 60.6295 59.7912C60.1982 57.4155 61.7797 55.141 64.1596 54.7115C66.5405 54.282 68.8185 55.8591 69.2497 58.2348Z" fill="black"/>
<path fill-rule="evenodd" clip-rule="evenodd" d="M91.9899 58.2348C92.4211 60.6104 90.8396 62.885 88.4597 63.3136C86.0788 63.744 83.8 62.166 83.3705 59.7912C82.9393 57.4155 84.5207 55.141 86.9007 54.7115C89.2815 54.282 91.5595 55.8591 91.9899 58.2348Z" fill="black"/>
<path fill-rule="evenodd" clip-rule="evenodd" d="M68.5022 75.9678C68.5022 75.9678 71.5303 80.8695 77.5294 80.4538L68.5022 75.9678Z" fill="white"/>
<path d="M68.5022 75.9678C68.5022 75.9678 71.5303 80.8695 77.5294 80.4538" stroke="black" stroke-width="4"/>
</svg>
