<svg  viewBox="0 0 113 120" fill="none" xmlns="http://www.w3.org/2000/svg">
<path fill-rule="evenodd" clip-rule="evenodd" d="M89.5369 34.0498C89.5369 34.0498 108.61 58.9761 82.7141 65.5921L89.5369 34.0498Z" fill="#19141E"/>
<path d="M53.9995 119.736L53.3648 97.7575C53.3648 97.7575 80.6612 99.8842 86.3575 96.9161C86.3575 96.9161 90.6874 70.2092 86.5703 51.2742L64.1573 30.9782L27.9862 33.6489L23.8807 66.4816C21.9879 60.8823 4.75777 53.8625 0.621617 66.4245C-4.71193 82.623 26.0299 91.1348 26.0299 91.1348L22.8175 120" fill="#B06C49"/>
<path d="M11.3467 32.3979L2.48947 23.3488L7.32618 18.6147L15.4147 26.8785L16.2023 26.5006L14.1156 14.8578L20.7773 13.6638L22.4496 22.9942C38.5822 13.1182 51.3231 20.8165 51.3231 20.8165C51.3231 20.8165 56.4524 -0.0623087 70.6868 -4.41182e-05C90.9641 0.0876376 94.1067 30.7571 94.1067 30.7571C94.1067 30.7571 104.326 13.6691 110.138 16.1116C115.95 18.5548 116.11 75.3107 35.429 47.6514C35.429 47.6514 42.3664 63.3038 23.8816 66.4824C23.8816 66.4824 20.6578 59.8018 9.73239 59.4243C9.73239 59.4243 -7.07077 52.5676 11.3467 32.3979Z" fill="#19141E"/>
<path opacity="0.4" fill-rule="evenodd" clip-rule="evenodd" d="M53.364 97.7568L35.408 93.8954L53.2783 106.003L53.364 97.7568Z" fill="black"/>
<path fill-rule="evenodd" clip-rule="evenodd" d="M68.5181 64.6866L74.7227 79.9016L67.2871 79.9964L68.5181 64.6866Z" fill="#835137"/>
<path fill-rule="evenodd" clip-rule="evenodd" d="M61.102 66.165C61.4712 68.2135 60.1146 70.1746 58.0722 70.5454C56.0291 70.9161 54.0739 69.5558 53.7047 67.5073C53.3347 65.4582 54.6913 63.497 56.7337 63.127C58.7769 62.7563 60.732 64.1159 61.102 66.165Z" fill="black"/>
<path fill-rule="evenodd" clip-rule="evenodd" d="M80.6168 66.165C80.9868 68.2135 79.6295 70.1746 77.5863 70.5454C75.5439 70.9161 73.5887 69.5558 73.2195 67.5073C72.8495 65.4582 74.2061 63.497 76.2493 63.127C78.2917 62.7563 80.2468 64.1159 80.6168 66.165Z" fill="black"/>
<path fill-rule="evenodd" clip-rule="evenodd" d="M58.9077 82.3982C58.9077 82.3982 61.2953 86.7492 66.4554 86.6462L58.9077 82.3982Z" fill="white"/>
<path d="M58.9077 82.3982C58.9077 82.3982 61.2953 86.7492 66.4554 86.6462" stroke="#252535" stroke-width="4"/>
</svg>
