<svg viewBox="0 0 94 120" fill="none" xmlns="http://www.w3.org/2000/svg">
<path d="M90.3161 21.6611C90.8249 22.7162 91.0029 23.1439 91.3471 24.027C92.7352 27.5882 93.4838 31.3561 93.4915 35.2551C93.4923 35.7551 93.4807 36.2528 93.4576 36.7482L93.5361 79.89H2.22112e-05V36.7482C9.91529e-05 36.7713 -5.47306e-05 36.725 2.22112e-05 36.7482C2.33052e-05 15.3525 11.664 0.0333366 40.9511 7.74729e-05C63.9029 -0.0255202 82.9043 6.2903 90.3161 21.6611Z" fill="#3D2314"/>
<path fill-rule="evenodd" clip-rule="evenodd" d="M54.9051 97.9379C54.9051 97.9379 44.9155 98.2282 40.6581 95.9406L54.3744 104.41L54.9051 97.9379Z" fill="#CF3E83"/>
<path d="M33.4388 63.4686C39.1509 63.0173 74.3211 59.4215 93.6545 38.1283L93.7487 38.1532C93.7487 38.1532 94.2192 85.0216 77.1702 94.6475C71.8629 97.6409 62.8004 98.3854 54.9059 97.9372L53.0904 120L27.3111 109.569C27.3111 109.569 29.7832 85.2268 30.857 75.882C25.6733 71.2552 16.851 69.1127 16.8348 61.257C16.8278 58.5447 18.4417 53.8344 24.4056 53.8268C32.4167 53.8192 31.2742 63.2475 31.2742 63.2475C31.9949 63.5233 32.7172 63.5879 33.4388 63.4686Z" fill="#FFE0BD"/>
<path fill-rule="evenodd" clip-rule="evenodd" d="M76.6201 63.2324L82.3369 76.8621L75.7039 76.7314L76.6201 63.2324Z" fill="#F7C68E"/>
<path fill-rule="evenodd" clip-rule="evenodd" d="M70.5326 63.8235C70.3897 66.5464 68.762 68.6675 66.8955 68.5619C65.0291 68.4563 63.6316 66.1634 63.7745 63.4405C63.9167 60.7176 65.5452 58.5957 67.4116 58.7013C69.2772 58.8077 70.6755 61.1005 70.5326 63.8235Z" fill="black"/>
<path fill-rule="evenodd" clip-rule="evenodd" d="M88.0598 63.3881C87.9176 66.111 86.2891 68.2322 84.4227 68.1266C82.557 68.021 81.1588 65.7281 81.3017 63.0052C81.4446 60.2823 83.0723 58.1603 84.9388 58.2667C86.8052 58.3723 88.2027 60.6652 88.0598 63.3881Z" fill="black"/>
<path d="M74.0778 83.2598C74.0778 83.2598 69.7562 84.6311 65.4262 79.8965" stroke="black" stroke-width="3"/>
<path opacity="0.395159" fill-rule="evenodd" clip-rule="evenodd" d="M54.8889 97.9372C54.8889 97.9372 44.8993 98.2274 40.6419 95.9406L54.3582 104.409L54.8889 97.9372Z" fill="black"/>
</svg>
